<svg version="1.1" xmlns="http://www.w3.org/2000/svg" xmlns:xlink="http://www.w3.org/1999/xlink" viewBox="0 0 172 172"><g fill="none" fill-rule="nonzero" stroke="none" stroke-width="1" stroke-linecap="butt" stroke-linejoin="miter" stroke-miterlimit="10" stroke-dasharray="" stroke-dashoffset="0" font-family="none" font-weight="none" font-size="none" text-anchor="none" style="mix-blend-mode: normal"><path d="M0,172v-172h172v172z" fill="none"></path><g><path d="M86,100.33333c-7.90483,0 -14.33333,-6.43208 -14.33333,-14.33333c0,-7.90125 6.4285,-14.33333 14.33333,-14.33333c7.90483,0 14.33333,6.43208 14.33333,14.33333c0,7.90125 -6.4285,14.33333 -14.33333,14.33333z" fill="#327535"></path><path d="M113.37308,120.22442l-10.75717,-9.47075l4.73358,-5.37858c4.71925,-5.36067 7.31717,-12.24067 7.31717,-19.37508c0,-7.18458 -2.60508,-14.0825 -7.3315,-19.41808l-4.7515,-5.36425l10.7285,-9.503l4.7515,5.36425c7.052,7.95858 10.93633,18.232 10.93633,28.92108c0,10.62458 -3.87,20.86575 -10.89333,28.84583zM58.96733,120.33908l-4.79808,-5.32125c-7.2025,-8.00158 -11.16925,-18.361 -11.16925,-29.18267c0,-10.5995 3.8485,-20.82633 10.836,-28.7885l4.72642,-5.38575l10.7715,9.45283l-4.72642,5.38933c-4.69058,5.34633 -7.27417,12.212 -7.27417,19.33208c0,7.27058 2.65883,14.22942 7.48558,19.5865l4.7945,5.32483z" fill="#4caf50"></path><g fill="#69f56e"><path d="M133.89842,141.01133l-10.67475,-9.56392l4.78017,-5.33917c9.88283,-11.03308 15.3295,-25.27683 15.3295,-40.10825c0,-14.83858 -5.418,-29.068 -15.25067,-40.08317l-4.773,-5.34275l10.69267,-9.54958l4.773,5.34633c12.18333,13.64175 18.89133,31.26817 18.89133,49.62917c0,18.36458 -6.74025,36.00533 -18.9845,49.67217zM38.0765,140.98625l-4.78017,-5.33917c-12.22992,-13.6525 -18.963,-31.304 -18.963,-49.71158c0,-18.31442 6.708,-35.91933 18.88775,-49.57183l4.773,-5.34633l10.69267,9.546l-4.773,5.34633c-9.83267,11.02233 -15.24708,25.23383 -15.24708,40.02583c0,14.86725 5.43592,29.12892 15.30442,40.14767l4.78017,5.33558z"></path></g></g></g></svg>