<svg version="1.1" xmlns="http://www.w3.org/2000/svg" xmlns:xlink="http://www.w3.org/1999/xlink" viewBox="0 0 172 172"><g fill="none" fill-rule="nonzero" stroke="none" stroke-width="1" stroke-linecap="butt" stroke-linejoin="miter" stroke-miterlimit="10" stroke-dasharray="" stroke-dashoffset="0" font-family="none" font-weight="none" font-size="none" text-anchor="none" style="mix-blend-mode: normal"><path d="M0,172v-172h172v172z" fill="none"></path><g><path d="M21.5,118.25v17.91667c0,6.09167 4.65833,10.75 10.75,10.75h107.5c5.73333,0 10.75,-4.65833 10.75,-10.75v-17.91667z" fill="#90a4ae"></path><path d="M150.5,118.25c-0.35833,6.09167 -5.375,10.75 -11.10833,10.75h-107.14167c-5.73333,0 -10.75,-4.65833 -10.75,-10.75v-82.41667c0,-6.09167 4.65833,-10.75 10.75,-10.75h107.14167c5.73333,0 10.75,4.65833 11.10833,10.75z" fill="#cfd8dc"></path><rect x="12" y="15" transform="scale(3.58333,3.58333)" width="2" height="12" fill="#546e7a"></rect><path d="M78.83333,78.83333h46.58333h3.58333h3.58333v-7.16667h-3.58333h-3.58333h-46.58333z" fill="#546e7a"></path><path d="M86,93.16667v-35.83333l-28.66667,17.91667z" fill="#546e7a"></path></g></g></svg>