<svg version="1.1" xmlns="http://www.w3.org/2000/svg" xmlns:xlink="http://www.w3.org/1999/xlink" viewBox="0 0 172 172"><g fill="none" fill-rule="nonzero" stroke="none" stroke-width="1" stroke-linecap="butt" stroke-linejoin="miter" stroke-miterlimit="10" stroke-dasharray="" stroke-dashoffset="0" font-family="none" font-weight="none" font-size="none" text-anchor="none" style="mix-blend-mode: normal"><path d="M0,172v-172h172v172z" fill="none"></path><g><path d="M86,103.91667c-7.88333,0 -14.33333,-6.45 -14.33333,-14.33333c0,-7.88333 6.45,-14.33333 14.33333,-14.33333c7.88333,0 14.33333,6.45 14.33333,14.33333c0,7.88333 -6.45,14.33333 -14.33333,14.33333z" fill="#327535"></path><path d="M113.95,123.26667l-10.39167,-10.03333l3.58333,-4.3c4.65833,-5.375 7.16667,-12.18333 7.16667,-19.35c0,-7.16667 -2.50833,-13.975 -7.16667,-19.35l-4.65833,-5.375l10.75,-9.675l4.65833,5.375c7.16667,7.88333 11.10833,18.275 11.10833,29.025c0,10.75 -3.94167,20.78333 -10.75,29.025zM59.125,123.98333l-4.65833,-5.375c-7.525,-7.88333 -11.46667,-18.275 -11.46667,-29.025c0,-10.75 3.94167,-20.78333 10.75,-28.66667l4.65833,-5.375l10.75,9.31667l-4.65833,5.375c-4.65833,5.375 -7.16667,12.18333 -7.16667,19.35c0,7.16667 2.50833,14.33333 7.525,19.70833l4.65833,5.375z" fill="#4caf50"></path><path d="M134.73333,143.69167l-10.39167,-10.03333l3.58333,-3.94167c10.03333,-11.10833 15.40833,-25.44167 15.40833,-40.13333c0,-14.69167 -5.375,-29.025 -15.40833,-40.13333l-4.65833,-5.375l10.75,-9.675l4.65833,5.375c12.18333,13.975 18.99167,31.53333 18.99167,49.80833c0,18.275 -6.80833,35.83333 -18.99167,49.80833zM37.98333,144.40833l-4.65833,-5.375c-12.18333,-13.61667 -18.99167,-31.175 -18.99167,-49.45c0,-18.275 6.80833,-35.83333 18.99167,-49.45l4.65833,-5.375l10.75,9.675l-4.65833,5.375c-10.03333,10.75 -15.40833,25.08333 -15.40833,39.775c0,15.05 5.375,29.025 15.40833,40.13333l4.65833,5.375z" fill="#69f56e"></path><path d="M12.7721,22.90968l10.13502,-10.13537l136.0674,136.06265l-10.13502,10.13537z" fill="#e74c3c"></path></g></g></svg>