<?xml version="1.0" encoding="UTF-8" standalone="no"?>
<!DOCTYPE svg PUBLIC "-//W3C//DTD SVG 1.1//EN"
 "http://www.w3.org/Graphics/SVG/1.1/DTD/svg11.dtd">
<!-- Generated by graphviz version 2.47.1 (20210417.1919)
 -->
<!-- Title: TimeTrackerGui.SettingsPopup.SettingsPopup Pages: 1 -->
<!--zoomable 263 -->
<svg id="main" version="1.1" xmlns="http://www.w3.org/2000/svg" xmlns:xlink="http://www.w3.org/1999/xlink" xml:space="preserve" onload="init(evt)">
<style type="text/css"><![CDATA[
.edge:hover path { stroke: red; }
.edge:hover polygon { stroke: red; fill: red; }
]]></style>
<script type="text/javascript"><![CDATA[
var edges = document.getElementsByTagName('g');
if (edges && edges.length) {
  for (var i=0;i<edges.length;i++) {
    if (edges[i].id.substr(0,4)=='edge') {
      edges[i].setAttribute('class','edge');
    }
  }
}
]]></script>
        <defs>
                <circle id="rim" cx="0" cy="0" r="7"/>
                <circle id="rim2" cx="0" cy="0" r="3.5"/>
                <g id="zoomPlus">
                        <use xlink:href="#rim" fill="#404040">
                                <set attributeName="fill" to="#808080" begin="zoomplus.mouseover" end="zoomplus.mouseout"/>
                        </use>
                        <path d="M-4,0h8M0,-4v8" fill="none" stroke="white" stroke-width="1.5" pointer-events="none"/>
                </g>
                <g id="zoomMin">
                        <use xlink:href="#rim" fill="#404040">
                                <set attributeName="fill" to="#808080" begin="zoomminus.mouseover" end="zoomminus.mouseout"/>
                        </use>
                        <path d="M-4,0h8" fill="none" stroke="white" stroke-width="1.5" pointer-events="none"/>
                </g>
                <g id="dirArrow">
                        <path fill="none" stroke="white" stroke-width="1.5" d="M0,-3.0v7 M-2.5,-0.5L0,-3.0L2.5,-0.5"/>
                </g>
               <g id="resetDef">
                       <use xlink:href="#rim2" fill="#404040">
                               <set attributeName="fill" to="#808080" begin="reset.mouseover" end="reset.mouseout"/>
                       </use>
               </g>
        </defs>

<script type="text/javascript">
var viewWidth = 1067;
var viewHeight = 263;
var sectionId = 'dynsection-1';
</script>
<script xlink:href="svgpan.js"/>
<svg id="graph" class="graph">
<g id="viewport">
<title>TimeTrackerGui.SettingsPopup.SettingsPopup</title>
<polygon fill="white" stroke="transparent" points="-4,4 -4,-258.5 1063,-258.5 1063,4 -4,4"/>
<!-- Node1 -->
<g id="node1" class="node">
<title>Node1</title>
<g id="a_node1"><a xlink:title=" ">
<polygon fill="#bfbfbf" stroke="black" points="0,-76.5 0,-106.5 155,-106.5 155,-76.5 0,-76.5"/>
<text text-anchor="start" x="8" y="-94.5" font-family="Helvetica,sans-Serif" font-size="10.00">TimeTrackerGui.SettingsPopup.</text>
<text text-anchor="middle" x="77.5" y="-83.5" font-family="Helvetica,sans-Serif" font-size="10.00">SettingsPopup</text>
</a>
</g>
</g>
<!-- Node2 -->
<g id="node2" class="node">
<title>Node2</title>
<g id="a_node2"><a xlink:href="classTimeTrackerGui_1_1SettingsPopup.html#adce617d687893d5e79bd54a87c431c56" target="_top" xlink:title=" ">
<polygon fill="white" stroke="black" points="191,-76.5 191,-106.5 371,-106.5 371,-76.5 191,-76.5"/>
<text text-anchor="start" x="199" y="-94.5" font-family="Helvetica,sans-Serif" font-size="10.00">TimeTrackerGui.SettingsPopup.config</text>
<text text-anchor="middle" x="281" y="-83.5" font-family="Helvetica,sans-Serif" font-size="10.00">ChoicePopup</text>
</a>
</g>
</g>
<!-- Node1&#45;&gt;Node2 -->
<g id="edge1" class="edge">
<title>Node1&#45;&gt;Node2</title>
<path fill="none" stroke="midnightblue" d="M155.25,-91.5C163.65,-91.5 172.28,-91.5 180.89,-91.5"/>
<polygon fill="midnightblue" stroke="midnightblue" points="180.98,-95 190.98,-91.5 180.98,-88 180.98,-95"/>
</g>
<!-- Node3 -->
<g id="node3" class="node">
<title>Node3</title>
<g id="a_node3"><a xlink:href="classTimeTrackerGui_1_1SettingsPopup.html#a55e829717dc5a087b61ab4c748abf781" target="_top" xlink:title=" ">
<polygon fill="white" stroke="black" points="412,-120.5 412,-150.5 592,-150.5 592,-120.5 412,-120.5"/>
<text text-anchor="start" x="420" y="-138.5" font-family="Helvetica,sans-Serif" font-size="10.00">TimeTrackerGui.SettingsPopup.config</text>
<text text-anchor="middle" x="502" y="-127.5" font-family="Helvetica,sans-Serif" font-size="10.00">InputPopup</text>
</a>
</g>
</g>
<!-- Node1&#45;&gt;Node3 -->
<g id="edge15" class="edge">
<title>Node1&#45;&gt;Node3</title>
<path fill="none" stroke="midnightblue" d="M140.99,-106.52C157.19,-109.95 174.68,-113.24 191,-115.5 261.09,-125.18 340.76,-130.2 401.78,-132.78"/>
<polygon fill="midnightblue" stroke="midnightblue" points="401.66,-136.28 411.79,-133.19 401.94,-129.28 401.66,-136.28"/>
</g>
<!-- Node13 -->
<g id="node13" class="node">
<title>Node13</title>
<g id="a_node13"><a xlink:href="classTimeTrackerBackEnd_1_1TimeTracker.html#a9b9e4e58e84dd2142dccdabb5d671c52" target="_top" xlink:title=" ">
<polygon fill="white" stroke="black" points="193,-27.5 193,-57.5 369,-57.5 369,-27.5 193,-27.5"/>
<text text-anchor="start" x="201" y="-45.5" font-family="Helvetica,sans-Serif" font-size="10.00">TimeTrackerBackEnd.TimeTracker.is</text>
<text text-anchor="middle" x="281" y="-34.5" font-family="Helvetica,sans-Serif" font-size="10.00">Configured</text>
</a>
</g>
</g>
<!-- Node1&#45;&gt;Node13 -->
<g id="edge16" class="edge">
<title>Node1&#45;&gt;Node13</title>
<path fill="none" stroke="midnightblue" d="M140.33,-76.47C161.89,-71.22 186.27,-65.29 208.55,-59.87"/>
<polygon fill="midnightblue" stroke="midnightblue" points="209.4,-63.27 218.29,-57.51 207.75,-56.47 209.4,-63.27"/>
</g>
<!-- Node2&#45;&gt;Node3 -->
<g id="edge2" class="edge">
<title>Node2&#45;&gt;Node3</title>
<path fill="none" stroke="midnightblue" d="M356.75,-106.52C375.94,-110.37 396.72,-114.55 416.36,-118.5"/>
<polygon fill="midnightblue" stroke="midnightblue" points="415.72,-121.94 426.21,-120.47 417.1,-115.07 415.72,-121.94"/>
</g>
<!-- Node8 -->
<g id="node8" class="node">
<title>Node8</title>
<g id="a_node8"><a xlink:href="classTimeTrackerBackEnd_1_1TimeTracker.html#a3a808f9b1a05a44eb8ca1cd500703118" target="_top" xlink:title=" ">
<polygon fill="white" stroke="black" points="638.5,-0.5 638.5,-30.5 820.5,-30.5 820.5,-0.5 638.5,-0.5"/>
<text text-anchor="start" x="646.5" y="-18.5" font-family="Helvetica,sans-Serif" font-size="10.00">TimeTrackerBackEnd.TimeTracker.set</text>
<text text-anchor="middle" x="729.5" y="-7.5" font-family="Helvetica,sans-Serif" font-size="10.00">DefaultConf</text>
</a>
</g>
</g>
<!-- Node2&#45;&gt;Node8 -->
<g id="edge14" class="edge">
<title>Node2&#45;&gt;Node8</title>
<path fill="none" stroke="midnightblue" d="M371.04,-100.95C436.12,-104.32 525.18,-101.44 597,-71.5 616.76,-63.26 614.08,-49.51 633,-39.5 636.55,-37.62 640.26,-35.88 644.06,-34.28"/>
<polygon fill="midnightblue" stroke="midnightblue" points="645.61,-37.43 653.67,-30.56 643.08,-30.91 645.61,-37.43"/>
</g>
<!-- Node11 -->
<g id="node11" class="node">
<title>Node11</title>
<g id="a_node11"><a xlink:href="classTimeTrackerBackEnd_1_1TimeTracker.html#a4e502affb392a5fe943c87569614df56" target="_top" xlink:title=" ">
<polygon fill="white" stroke="black" points="407,-191.5 407,-221.5 597,-221.5 597,-191.5 407,-191.5"/>
<text text-anchor="start" x="415" y="-209.5" font-family="Helvetica,sans-Serif" font-size="10.00">TimeTrackerBackEnd.TimeTracker.copy</text>
<text text-anchor="middle" x="502" y="-198.5" font-family="Helvetica,sans-Serif" font-size="10.00">Settings</text>
</a>
</g>
</g>
<!-- Node2&#45;&gt;Node11 -->
<g id="edge10" class="edge">
<title>Node2&#45;&gt;Node11</title>
<path fill="none" stroke="midnightblue" d="M308.62,-106.69C333.78,-120.93 372.7,-142.65 407,-160.5 424.11,-169.4 443.2,-178.83 459.68,-186.82"/>
<polygon fill="midnightblue" stroke="midnightblue" points="458.52,-190.15 469.04,-191.34 461.56,-183.84 458.52,-190.15"/>
</g>
<!-- Node12 -->
<g id="node12" class="node">
<title>Node12</title>
<g id="a_node12"><a xlink:href="classTimeTrackerBackEnd_1_1TimeTracker.html#a856447c5ca53db479a1c94d9cec28f07" target="_top" xlink:title=" ">
<polygon fill="white" stroke="black" points="411,-32.5 411,-62.5 593,-62.5 593,-32.5 411,-32.5"/>
<text text-anchor="start" x="419" y="-50.5" font-family="Helvetica,sans-Serif" font-size="10.00">TimeTrackerBackEnd.TimeTracker.list</text>
<text text-anchor="middle" x="502" y="-39.5" font-family="Helvetica,sans-Serif" font-size="10.00">SettingsFiles</text>
</a>
</g>
</g>
<!-- Node2&#45;&gt;Node12 -->
<g id="edge13" class="edge">
<title>Node2&#45;&gt;Node12</title>
<path fill="none" stroke="midnightblue" d="M356.75,-76.48C375.94,-72.63 396.72,-68.45 416.36,-64.5"/>
<polygon fill="midnightblue" stroke="midnightblue" points="417.1,-67.93 426.21,-62.53 415.72,-61.06 417.1,-67.93"/>
</g>
<!-- Node4 -->
<g id="node4" class="node">
<title>Node4</title>
<g id="a_node4"><a xlink:href="classTimeTrackerBackEnd_1_1TCPClient.html#a47ff4312b6ed832f9effff6c1b2457a8" target="_top" xlink:title=" ">
<polygon fill="white" stroke="black" points="633,-235 633,-254 826,-254 826,-235 633,-235"/>
<text text-anchor="middle" x="729.5" y="-242" font-family="Helvetica,sans-Serif" font-size="10.00">TimeTrackerBackEnd.TCPClient.getHost</text>
</a>
</g>
</g>
<!-- Node3&#45;&gt;Node4 -->
<g id="edge3" class="edge">
<title>Node3&#45;&gt;Node4</title>
<path fill="none" stroke="midnightblue" d="M541.69,-150.52C559.54,-158.5 580.39,-169.38 597,-182.5 616.56,-197.95 611.56,-212.79 633,-225.5 636.68,-227.68 640.57,-229.62 644.58,-231.34"/>
<polygon fill="midnightblue" stroke="midnightblue" points="643.56,-234.69 654.15,-234.96 646.04,-228.14 643.56,-234.69"/>
</g>
<!-- Node5 -->
<g id="node5" class="node">
<title>Node5</title>
<g id="a_node5"><a xlink:href="classTimeTrackerBackEnd_1_1TCPClient.html#a48df5809c8c92342810bf197ab4a3256" target="_top" xlink:title=" ">
<polygon fill="white" stroke="black" points="634,-197 634,-216 825,-216 825,-197 634,-197"/>
<text text-anchor="middle" x="729.5" y="-204" font-family="Helvetica,sans-Serif" font-size="10.00">TimeTrackerBackEnd.TCPClient.getPort</text>
</a>
</g>
</g>
<!-- Node3&#45;&gt;Node5 -->
<g id="edge4" class="edge">
<title>Node3&#45;&gt;Node5</title>
<path fill="none" stroke="midnightblue" d="M535.8,-150.58C561.73,-162.02 599.09,-177.44 633,-187.5 642.14,-190.21 651.89,-192.65 661.54,-194.81"/>
<polygon fill="midnightblue" stroke="midnightblue" points="661.01,-198.27 671.52,-196.95 662.48,-191.43 661.01,-198.27"/>
</g>
<!-- Node6 -->
<g id="node6" class="node">
<title>Node6</title>
<g id="a_node6"><a xlink:href="classTimeTrackerBackEnd_1_1TimeTracker.html#a3bd1626f952ab1b1dec1018aa34ec486" target="_top" xlink:title=" ">
<polygon fill="white" stroke="black" points="638.5,-147.5 638.5,-177.5 820.5,-177.5 820.5,-147.5 638.5,-147.5"/>
<text text-anchor="start" x="646.5" y="-165.5" font-family="Helvetica,sans-Serif" font-size="10.00">TimeTrackerBackEnd.TimeTracker.get</text>
<text text-anchor="middle" x="729.5" y="-154.5" font-family="Helvetica,sans-Serif" font-size="10.00">TcpClient</text>
</a>
</g>
</g>
<!-- Node3&#45;&gt;Node6 -->
<g id="edge5" class="edge">
<title>Node3&#45;&gt;Node6</title>
<path fill="none" stroke="midnightblue" d="M592.12,-146.17C603.95,-147.59 616.15,-149.05 628.15,-150.48"/>
<polygon fill="midnightblue" stroke="midnightblue" points="627.83,-153.97 638.18,-151.69 628.66,-147.02 627.83,-153.97"/>
</g>
<!-- Node7 -->
<g id="node7" class="node">
<title>Node7</title>
<g id="a_node7"><a xlink:href="classTimeTrackerBackEnd_1_1TimeTracker.html#a38490707a0983f3f6a99f1a61de36b0e" target="_top" xlink:title=" ">
<polygon fill="white" stroke="black" points="638.5,-98.5 638.5,-128.5 820.5,-128.5 820.5,-98.5 638.5,-98.5"/>
<text text-anchor="start" x="646.5" y="-116.5" font-family="Helvetica,sans-Serif" font-size="10.00">TimeTrackerBackEnd.TimeTracker.get</text>
<text text-anchor="middle" x="729.5" y="-105.5" font-family="Helvetica,sans-Serif" font-size="10.00">TimeTrackerName</text>
</a>
</g>
</g>
<!-- Node3&#45;&gt;Node7 -->
<g id="edge6" class="edge">
<title>Node3&#45;&gt;Node7</title>
<path fill="none" stroke="midnightblue" d="M592.12,-126.81C603.95,-125.65 616.15,-124.46 628.15,-123.29"/>
<polygon fill="midnightblue" stroke="midnightblue" points="628.56,-126.77 638.18,-122.31 627.88,-119.8 628.56,-126.77"/>
</g>
<!-- Node3&#45;&gt;Node8 -->
<g id="edge7" class="edge">
<title>Node3&#45;&gt;Node8</title>
<path fill="none" stroke="midnightblue" d="M571.93,-120.36C580.94,-116.48 589.6,-111.61 597,-105.5 622.77,-84.23 606.58,-59.96 633,-39.5 634.81,-38.1 636.7,-36.78 638.64,-35.53"/>
<polygon fill="midnightblue" stroke="midnightblue" points="640.51,-38.5 647.51,-30.54 637.07,-32.39 640.51,-38.5"/>
</g>
<!-- Node9 -->
<g id="node9" class="node">
<title>Node9</title>
<g id="a_node9"><a xlink:href="classTimeTrackerBackEnd_1_1TimeTracker.html#a37c8378a6047e1aecde582d212d31da4" target="_top" xlink:title=" ">
<polygon fill="white" stroke="black" points="638.5,-49.5 638.5,-79.5 820.5,-79.5 820.5,-49.5 638.5,-49.5"/>
<text text-anchor="start" x="646.5" y="-67.5" font-family="Helvetica,sans-Serif" font-size="10.00">TimeTrackerBackEnd.TimeTracker.set</text>
<text text-anchor="middle" x="729.5" y="-56.5" font-family="Helvetica,sans-Serif" font-size="10.00">Settings</text>
</a>
</g>
</g>
<!-- Node3&#45;&gt;Node9 -->
<g id="edge8" class="edge">
<title>Node3&#45;&gt;Node9</title>
<path fill="none" stroke="midnightblue" d="M554.66,-120.37C568.54,-115.93 583.45,-110.83 597,-105.5 613.46,-99.02 616.34,-94.46 633,-88.5 639.02,-86.35 645.32,-84.31 651.69,-82.4"/>
<polygon fill="midnightblue" stroke="midnightblue" points="653.09,-85.64 661.73,-79.51 651.15,-78.91 653.09,-85.64"/>
</g>
<!-- Node10 -->
<g id="node10" class="node">
<title>Node10</title>
<g id="a_node10"><a xlink:href="classTimeTrackerBackEnd_1_1TimeTracker.html#ab3b7a89f7ba9afdb4f46325604decd61" target="_top" xlink:title=" ">
<polygon fill="white" stroke="black" points="862,-55 862,-74 1059,-74 1059,-55 862,-55"/>
<text text-anchor="middle" x="960.5" y="-62" font-family="Helvetica,sans-Serif" font-size="10.00">TimeTrackerBackEnd.TimeTracker.toJson</text>
</a>
</g>
</g>
<!-- Node9&#45;&gt;Node10 -->
<g id="edge9" class="edge">
<title>Node9&#45;&gt;Node10</title>
<path fill="none" stroke="midnightblue" d="M820.68,-64.5C830.82,-64.5 841.22,-64.5 851.55,-64.5"/>
<polygon fill="midnightblue" stroke="midnightblue" points="851.85,-68 861.85,-64.5 851.85,-61 851.85,-68"/>
</g>
<!-- Node11&#45;&gt;Node4 -->
<g id="edge11" class="edge">
<title>Node11&#45;&gt;Node4</title>
<path fill="none" stroke="midnightblue" d="M592.12,-221.52C615.5,-225.46 640.3,-229.64 662.25,-233.34"/>
<polygon fill="midnightblue" stroke="midnightblue" points="661.68,-236.79 672.12,-235 662.84,-229.89 661.68,-236.79"/>
</g>
<!-- Node11&#45;&gt;Node5 -->
<g id="edge12" class="edge">
<title>Node11&#45;&gt;Node5</title>
<path fill="none" stroke="midnightblue" d="M597.33,-206.5C606,-206.5 614.82,-206.5 623.59,-206.5"/>
<polygon fill="midnightblue" stroke="midnightblue" points="623.83,-210 633.83,-206.5 623.83,-203 623.83,-210"/>
</g>
</g>
</svg>
        <g id="navigator" transform="translate(0 0)" fill="#404254">
                <rect fill="#f2f5e9" fill-opacity="0.5" stroke="#606060" stroke-width=".5" x="0" y="0" width="60" height="60"/>
                <use id="zoomplus" xlink:href="#zoomPlus" x="17" y="9" onmousedown="handleZoom(evt,'in')"/>
                <use id="zoomminus" xlink:href="#zoomMin" x="42" y="9" onmousedown="handleZoom(evt,'out')"/>
                <use id="reset" xlink:href="#resetDef" x="30" y="36" onmousedown="handleReset()"/>
                <g id="arrowUp" xlink:href="#dirArrow" transform="translate(30 24)" onmousedown="handlePan(0,-1)">
                  <use xlink:href="#rim" fill="#404040">
                        <set attributeName="fill" to="#808080" begin="arrowUp.mouseover" end="arrowUp.mouseout"/>
                  </use>
                  <path fill="none" stroke="white" stroke-width="1.5" d="M0,-3.0v7 M-2.5,-0.5L0,-3.0L2.5,-0.5"/>
                </g>
                <g id="arrowRight" xlink:href="#dirArrow" transform="rotate(90) translate(36 -43)" onmousedown="handlePan(1,0)">
                  <use xlink:href="#rim" fill="#404040">
                        <set attributeName="fill" to="#808080" begin="arrowRight.mouseover" end="arrowRight.mouseout"/>
                  </use>
                  <path fill="none" stroke="white" stroke-width="1.5" d="M0,-3.0v7 M-2.5,-0.5L0,-3.0L2.5,-0.5"/>
                </g>
                <g id="arrowDown" xlink:href="#dirArrow" transform="rotate(180) translate(-30 -48)" onmousedown="handlePan(0,1)">
                  <use xlink:href="#rim" fill="#404040">
                        <set attributeName="fill" to="#808080" begin="arrowDown.mouseover" end="arrowDown.mouseout"/>
                  </use>
                  <path fill="none" stroke="white" stroke-width="1.5" d="M0,-3.0v7 M-2.5,-0.5L0,-3.0L2.5,-0.5"/>
                </g>
                <g id="arrowLeft" xlink:href="#dirArrow" transform="rotate(270) translate(-36 17)" onmousedown="handlePan(-1,0)">
                  <use xlink:href="#rim" fill="#404040">
                        <set attributeName="fill" to="#808080" begin="arrowLeft.mouseover" end="arrowLeft.mouseout"/>
                  </use>
                  <path fill="none" stroke="white" stroke-width="1.5" d="M0,-3.0v7 M-2.5,-0.5L0,-3.0L2.5,-0.5"/>
                </g>
        </g>
        <svg viewBox="0 0 15 15" width="100%" height="30px" preserveAspectRatio="xMaxYMin meet">
         <g id="arrow_out" transform="scale(0.3 0.3)">
          <a xlink:href="classTimeTrackerGui_1_1SettingsPopup_a47424f3b2f65269a1e2e1213b80b1cb0_cgraph_org.svg" target="_base">
           <rect id="button" ry="5" rx="5" y="6" x="6" height="38" width="38"
                fill="#f2f5e9" fill-opacity="0.5" stroke="#606060" stroke-width="1.0"/>
           <path id="arrow"
             d="M 11.500037,31.436501 C 11.940474,20.09759 22.043105,11.32322 32.158766,21.979434 L 37.068811,17.246167 C 37.068811,17.246167 37.088388,32 37.088388,32 L 22.160133,31.978069 C 22.160133,31.978069 26.997745,27.140456 26.997745,27.140456 C 18.528582,18.264221 13.291696,25.230495 11.500037,31.436501 z"
             style="fill:#404040;"/>
          </a>
         </g>
        </svg>
</svg>
