<?xml version="1.0" encoding="UTF-8" standalone="no"?>
<!DOCTYPE svg PUBLIC "-//W3C//DTD SVG 1.1//EN"
 "http://www.w3.org/Graphics/SVG/1.1/DTD/svg11.dtd">
<!-- Generated by graphviz version 2.47.1 (20210417.1919)
 -->
<!-- Title: TimeTrackerBackEnd.TimeTracker.getTimeTrackerName Pages: 1 -->
<svg width="813pt" height="61pt"
 viewBox="0.00 0.00 813.00 61.00" xmlns="http://www.w3.org/2000/svg" xmlns:xlink="http://www.w3.org/1999/xlink">
<g id="graph0" class="graph" transform="scale(1 1) rotate(0) translate(4 57)">
<title>TimeTrackerBackEnd.TimeTracker.getTimeTrackerName</title>
<polygon fill="white" stroke="transparent" points="-4,4 -4,-57 809,-57 809,4 -4,4"/>
<!-- Node1 -->
<g id="node1" class="node">
<title>Node1</title>
<g id="a_node1"><a xlink:title=" ">
<polygon fill="#bfbfbf" stroke="black" points="623,-0.5 623,-30.5 805,-30.5 805,-0.5 623,-0.5"/>
<text text-anchor="start" x="631" y="-18.5" font-family="Helvetica,sans-Serif" font-size="10.00">TimeTrackerBackEnd.TimeTracker.get</text>
<text text-anchor="middle" x="714" y="-7.5" font-family="Helvetica,sans-Serif" font-size="10.00">TimeTrackerName</text>
</a>
</g>
</g>
<!-- Node2 -->
<g id="node2" class="node">
<title>Node2</title>
<g id="a_node2"><a xlink:href="classTimeTrackerGui_1_1SettingsPopup.html#a55e829717dc5a087b61ab4c748abf781" target="_top" xlink:title=" ">
<polygon fill="white" stroke="black" points="407,-0.5 407,-30.5 587,-30.5 587,-0.5 407,-0.5"/>
<text text-anchor="start" x="415" y="-18.5" font-family="Helvetica,sans-Serif" font-size="10.00">TimeTrackerGui.SettingsPopup.config</text>
<text text-anchor="middle" x="497" y="-7.5" font-family="Helvetica,sans-Serif" font-size="10.00">InputPopup</text>
</a>
</g>
</g>
<!-- Node1&#45;&gt;Node2 -->
<g id="edge1" class="edge">
<title>Node1&#45;&gt;Node2</title>
<path fill="none" stroke="midnightblue" d="M612.53,-15.5C604.12,-15.5 595.65,-15.5 587.32,-15.5"/>
<polygon fill="midnightblue" stroke="midnightblue" points="612.76,-19 622.76,-15.5 612.76,-12 612.76,-19"/>
</g>
<!-- Node3 -->
<g id="node3" class="node">
<title>Node3</title>
<g id="a_node3"><a xlink:href="classTimeTrackerGui_1_1SettingsPopup.html#adce617d687893d5e79bd54a87c431c56" target="_top" xlink:title=" ">
<polygon fill="white" stroke="black" points="191,-22.5 191,-52.5 371,-52.5 371,-22.5 191,-22.5"/>
<text text-anchor="start" x="199" y="-40.5" font-family="Helvetica,sans-Serif" font-size="10.00">TimeTrackerGui.SettingsPopup.config</text>
<text text-anchor="middle" x="281" y="-29.5" font-family="Helvetica,sans-Serif" font-size="10.00">ChoicePopup</text>
</a>
</g>
</g>
<!-- Node2&#45;&gt;Node3 -->
<g id="edge2" class="edge">
<title>Node2&#45;&gt;Node3</title>
<path fill="none" stroke="midnightblue" d="M396.77,-25.7C388.19,-26.58 379.55,-27.47 371.06,-28.34"/>
<polygon fill="midnightblue" stroke="midnightblue" points="397.2,-29.18 406.79,-24.67 396.49,-22.21 397.2,-29.18"/>
</g>
<!-- Node4 -->
<g id="node4" class="node">
<title>Node4</title>
<g id="a_node4"><a xlink:href="classTimeTrackerGui_1_1SettingsPopup.html#a47424f3b2f65269a1e2e1213b80b1cb0" target="_top" xlink:title=" ">
<polygon fill="white" stroke="black" points="0,-0.5 0,-30.5 155,-30.5 155,-0.5 0,-0.5"/>
<text text-anchor="start" x="8" y="-18.5" font-family="Helvetica,sans-Serif" font-size="10.00">TimeTrackerGui.SettingsPopup.</text>
<text text-anchor="middle" x="77.5" y="-7.5" font-family="Helvetica,sans-Serif" font-size="10.00">SettingsPopup</text>
</a>
</g>
</g>
<!-- Node2&#45;&gt;Node4 -->
<g id="edge4" class="edge">
<title>Node2&#45;&gt;Node4</title>
<path fill="none" stroke="midnightblue" d="M396.69,-13.77C388,-13.66 379.35,-13.57 371,-13.5 291,-12.86 271,-12.79 191,-13.5 179.38,-13.6 167.08,-13.77 155.05,-13.96"/>
<polygon fill="midnightblue" stroke="midnightblue" points="396.85,-17.27 406.89,-13.9 396.94,-10.27 396.85,-17.27"/>
</g>
<!-- Node3&#45;&gt;Node4 -->
<g id="edge3" class="edge">
<title>Node3&#45;&gt;Node4</title>
<path fill="none" stroke="midnightblue" d="M180.67,-26.65C172.07,-25.72 163.45,-24.78 155.08,-23.86"/>
<polygon fill="midnightblue" stroke="midnightblue" points="180.42,-30.15 190.74,-27.75 181.18,-23.19 180.42,-30.15"/>
</g>
</g>
</svg>
