<?xml version="1.0" encoding="UTF-8" standalone="no"?>
<!DOCTYPE svg PUBLIC "-//W3C//DTD SVG 1.1//EN"
 "http://www.w3.org/Graphics/SVG/1.1/DTD/svg11.dtd">
<!-- Generated by graphviz version 2.47.1 (20210417.1919)
 -->
<!-- Title: TimeTrackerBackEnd.TimeTracker.setDefaultConf Pages: 1 -->
<svg width="813pt" height="83pt"
 viewBox="0.00 0.00 813.00 83.00" xmlns="http://www.w3.org/2000/svg" xmlns:xlink="http://www.w3.org/1999/xlink">
<g id="graph0" class="graph" transform="scale(1 1) rotate(0) translate(4 79)">
<title>TimeTrackerBackEnd.TimeTracker.setDefaultConf</title>
<polygon fill="white" stroke="transparent" points="-4,4 -4,-79 809,-79 809,4 -4,4"/>
<!-- Node1 -->
<g id="node1" class="node">
<title>Node1</title>
<g id="a_node1"><a xlink:title=" ">
<polygon fill="#bfbfbf" stroke="black" points="623,-22.5 623,-52.5 805,-52.5 805,-22.5 623,-22.5"/>
<text text-anchor="start" x="631" y="-40.5" font-family="Helvetica,sans-Serif" font-size="10.00">TimeTrackerBackEnd.TimeTracker.set</text>
<text text-anchor="middle" x="714" y="-29.5" font-family="Helvetica,sans-Serif" font-size="10.00">DefaultConf</text>
</a>
</g>
</g>
<!-- Node2 -->
<g id="node2" class="node">
<title>Node2</title>
<g id="a_node2"><a xlink:href="classTimeTrackerGui_1_1SettingsPopup.html#adce617d687893d5e79bd54a87c431c56" target="_top" xlink:title=" ">
<polygon fill="white" stroke="black" points="191,-44.5 191,-74.5 371,-74.5 371,-44.5 191,-44.5"/>
<text text-anchor="start" x="199" y="-62.5" font-family="Helvetica,sans-Serif" font-size="10.00">TimeTrackerGui.SettingsPopup.config</text>
<text text-anchor="middle" x="281" y="-51.5" font-family="Helvetica,sans-Serif" font-size="10.00">ChoicePopup</text>
</a>
</g>
</g>
<!-- Node1&#45;&gt;Node2 -->
<g id="edge1" class="edge">
<title>Node1&#45;&gt;Node2</title>
<path fill="none" stroke="midnightblue" d="M612.77,-42.62C539.71,-46.35 441.6,-51.35 371.23,-54.95"/>
<polygon fill="midnightblue" stroke="midnightblue" points="613.1,-46.1 622.91,-42.1 612.75,-39.11 613.1,-46.1"/>
</g>
<!-- Node4 -->
<g id="node4" class="node">
<title>Node4</title>
<g id="a_node4"><a xlink:href="classTimeTrackerGui_1_1SettingsPopup.html#a55e829717dc5a087b61ab4c748abf781" target="_top" xlink:title=" ">
<polygon fill="white" stroke="black" points="407,-0.5 407,-30.5 587,-30.5 587,-0.5 407,-0.5"/>
<text text-anchor="start" x="415" y="-18.5" font-family="Helvetica,sans-Serif" font-size="10.00">TimeTrackerGui.SettingsPopup.config</text>
<text text-anchor="middle" x="497" y="-7.5" font-family="Helvetica,sans-Serif" font-size="10.00">InputPopup</text>
</a>
</g>
</g>
<!-- Node1&#45;&gt;Node4 -->
<g id="edge3" class="edge">
<title>Node1&#45;&gt;Node4</title>
<path fill="none" stroke="midnightblue" d="M612.53,-27.22C604.12,-26.36 595.65,-25.49 587.32,-24.64"/>
<polygon fill="midnightblue" stroke="midnightblue" points="612.45,-30.73 622.76,-28.27 613.16,-23.77 612.45,-30.73"/>
</g>
<!-- Node3 -->
<g id="node3" class="node">
<title>Node3</title>
<g id="a_node3"><a xlink:href="classTimeTrackerGui_1_1SettingsPopup.html#a47424f3b2f65269a1e2e1213b80b1cb0" target="_top" xlink:title=" ">
<polygon fill="white" stroke="black" points="0,-22.5 0,-52.5 155,-52.5 155,-22.5 0,-22.5"/>
<text text-anchor="start" x="8" y="-40.5" font-family="Helvetica,sans-Serif" font-size="10.00">TimeTrackerGui.SettingsPopup.</text>
<text text-anchor="middle" x="77.5" y="-29.5" font-family="Helvetica,sans-Serif" font-size="10.00">SettingsPopup</text>
</a>
</g>
</g>
<!-- Node2&#45;&gt;Node3 -->
<g id="edge2" class="edge">
<title>Node2&#45;&gt;Node3</title>
<path fill="none" stroke="midnightblue" d="M180.67,-48.65C172.07,-47.72 163.45,-46.78 155.08,-45.86"/>
<polygon fill="midnightblue" stroke="midnightblue" points="180.42,-52.15 190.74,-49.75 181.18,-45.19 180.42,-52.15"/>
</g>
<!-- Node4&#45;&gt;Node2 -->
<g id="edge4" class="edge">
<title>Node4&#45;&gt;Node2</title>
<path fill="none" stroke="midnightblue" d="M413.07,-32.55C393.95,-36.48 373.75,-40.64 355.08,-44.47"/>
<polygon fill="midnightblue" stroke="midnightblue" points="413.86,-35.96 422.95,-30.52 412.45,-29.1 413.86,-35.96"/>
</g>
<!-- Node4&#45;&gt;Node3 -->
<g id="edge5" class="edge">
<title>Node4&#45;&gt;Node3</title>
<path fill="none" stroke="midnightblue" d="M396.68,-20.73C322.67,-24.63 223.08,-29.88 155.15,-33.46"/>
<polygon fill="midnightblue" stroke="midnightblue" points="397.15,-24.21 406.95,-20.19 396.78,-17.22 397.15,-24.21"/>
</g>
</g>
</svg>
