<?xml version="1.0" encoding="UTF-8" standalone="no"?>
<!DOCTYPE svg PUBLIC "-//W3C//DTD SVG 1.1//EN"
 "http://www.w3.org/Graphics/SVG/1.1/DTD/svg11.dtd">
<!-- Generated by graphviz version 2.47.1 (20210417.1919)
 -->
<!-- Title: TimeTrackerGui.SettingsPopup.configInputPopup Pages: 1 -->
<svg width="650pt" height="263pt"
 viewBox="0.00 0.00 650.00 262.50" xmlns="http://www.w3.org/2000/svg" xmlns:xlink="http://www.w3.org/1999/xlink">
<g id="graph0" class="graph" transform="scale(1 1) rotate(0) translate(4 258.5)">
<title>TimeTrackerGui.SettingsPopup.configInputPopup</title>
<polygon fill="white" stroke="transparent" points="-4,4 -4,-258.5 646,-258.5 646,4 -4,4"/>
<!-- Node1 -->
<g id="node1" class="node">
<title>Node1</title>
<g id="a_node1"><a xlink:title=" ">
<polygon fill="#bfbfbf" stroke="black" points="0,-122.5 0,-152.5 180,-152.5 180,-122.5 0,-122.5"/>
<text text-anchor="start" x="8" y="-140.5" font-family="Helvetica,sans-Serif" font-size="10.00">TimeTrackerGui.SettingsPopup.config</text>
<text text-anchor="middle" x="90" y="-129.5" font-family="Helvetica,sans-Serif" font-size="10.00">InputPopup</text>
</a>
</g>
</g>
<!-- Node2 -->
<g id="node2" class="node">
<title>Node2</title>
<g id="a_node2"><a xlink:href="classTimeTrackerBackEnd_1_1TCPClient.html#a47ff4312b6ed832f9effff6c1b2457a8" target="_top" xlink:title=" ">
<polygon fill="white" stroke="black" points="216,-235 216,-254 409,-254 409,-235 216,-235"/>
<text text-anchor="middle" x="312.5" y="-242" font-family="Helvetica,sans-Serif" font-size="10.00">TimeTrackerBackEnd.TCPClient.getHost</text>
</a>
</g>
</g>
<!-- Node1&#45;&gt;Node2 -->
<g id="edge1" class="edge">
<title>Node1&#45;&gt;Node2</title>
<path fill="none" stroke="midnightblue" d="M107.41,-152.52C130.08,-172.41 173.07,-207.1 216,-225.5 222.11,-228.12 228.59,-230.38 235.19,-232.33"/>
<polygon fill="midnightblue" stroke="midnightblue" points="234.34,-235.73 244.91,-234.98 236.18,-228.98 234.34,-235.73"/>
</g>
<!-- Node3 -->
<g id="node3" class="node">
<title>Node3</title>
<g id="a_node3"><a xlink:href="classTimeTrackerBackEnd_1_1TCPClient.html#a48df5809c8c92342810bf197ab4a3256" target="_top" xlink:title=" ">
<polygon fill="white" stroke="black" points="217,-197 217,-216 408,-216 408,-197 217,-197"/>
<text text-anchor="middle" x="312.5" y="-204" font-family="Helvetica,sans-Serif" font-size="10.00">TimeTrackerBackEnd.TCPClient.getPort</text>
</a>
</g>
</g>
<!-- Node1&#45;&gt;Node3 -->
<g id="edge2" class="edge">
<title>Node1&#45;&gt;Node3</title>
<path fill="none" stroke="midnightblue" d="M123.83,-152.57C148.71,-163.51 183.96,-177.99 216,-187.5 225.14,-190.21 234.89,-192.65 244.54,-194.81"/>
<polygon fill="midnightblue" stroke="midnightblue" points="244.01,-198.27 254.52,-196.95 245.48,-191.43 244.01,-198.27"/>
</g>
<!-- Node4 -->
<g id="node4" class="node">
<title>Node4</title>
<g id="a_node4"><a xlink:href="classTimeTrackerBackEnd_1_1TimeTracker.html#a3bd1626f952ab1b1dec1018aa34ec486" target="_top" xlink:title=" ">
<polygon fill="white" stroke="black" points="221.5,-147.5 221.5,-177.5 403.5,-177.5 403.5,-147.5 221.5,-147.5"/>
<text text-anchor="start" x="229.5" y="-165.5" font-family="Helvetica,sans-Serif" font-size="10.00">TimeTrackerBackEnd.TimeTracker.get</text>
<text text-anchor="middle" x="312.5" y="-154.5" font-family="Helvetica,sans-Serif" font-size="10.00">TcpClient</text>
</a>
</g>
</g>
<!-- Node1&#45;&gt;Node4 -->
<g id="edge3" class="edge">
<title>Node1&#45;&gt;Node4</title>
<path fill="none" stroke="midnightblue" d="M180.05,-147.6C190.38,-148.77 200.96,-149.97 211.42,-151.15"/>
<polygon fill="midnightblue" stroke="midnightblue" points="211.07,-154.64 221.4,-152.28 211.86,-147.68 211.07,-154.64"/>
</g>
<!-- Node5 -->
<g id="node5" class="node">
<title>Node5</title>
<g id="a_node5"><a xlink:href="classTimeTrackerBackEnd_1_1TimeTracker.html#a38490707a0983f3f6a99f1a61de36b0e" target="_top" xlink:title=" ">
<polygon fill="white" stroke="black" points="221.5,-98.5 221.5,-128.5 403.5,-128.5 403.5,-98.5 221.5,-98.5"/>
<text text-anchor="start" x="229.5" y="-116.5" font-family="Helvetica,sans-Serif" font-size="10.00">TimeTrackerBackEnd.TimeTracker.get</text>
<text text-anchor="middle" x="312.5" y="-105.5" font-family="Helvetica,sans-Serif" font-size="10.00">TimeTrackerName</text>
</a>
</g>
</g>
<!-- Node1&#45;&gt;Node5 -->
<g id="edge4" class="edge">
<title>Node1&#45;&gt;Node5</title>
<path fill="none" stroke="midnightblue" d="M180.05,-127.81C190.38,-126.68 200.96,-125.53 211.42,-124.39"/>
<polygon fill="midnightblue" stroke="midnightblue" points="211.84,-127.87 221.4,-123.31 211.08,-120.91 211.84,-127.87"/>
</g>
<!-- Node6 -->
<g id="node6" class="node">
<title>Node6</title>
<g id="a_node6"><a xlink:href="classTimeTrackerBackEnd_1_1TimeTracker.html#a3a808f9b1a05a44eb8ca1cd500703118" target="_top" xlink:title=" ">
<polygon fill="white" stroke="black" points="221.5,-49.5 221.5,-79.5 403.5,-79.5 403.5,-49.5 221.5,-49.5"/>
<text text-anchor="start" x="229.5" y="-67.5" font-family="Helvetica,sans-Serif" font-size="10.00">TimeTrackerBackEnd.TimeTracker.set</text>
<text text-anchor="middle" x="312.5" y="-56.5" font-family="Helvetica,sans-Serif" font-size="10.00">DefaultConf</text>
</a>
</g>
</g>
<!-- Node1&#45;&gt;Node6 -->
<g id="edge5" class="edge">
<title>Node1&#45;&gt;Node6</title>
<path fill="none" stroke="midnightblue" d="M127,-122.46C151.77,-112.41 185.57,-99.29 216,-89.5 223.86,-86.97 232.14,-84.51 240.4,-82.18"/>
<polygon fill="midnightblue" stroke="midnightblue" points="241.37,-85.54 250.07,-79.51 239.5,-78.8 241.37,-85.54"/>
</g>
<!-- Node7 -->
<g id="node7" class="node">
<title>Node7</title>
<g id="a_node7"><a xlink:href="classTimeTrackerBackEnd_1_1TimeTracker.html#a37c8378a6047e1aecde582d212d31da4" target="_top" xlink:title=" ">
<polygon fill="white" stroke="black" points="221.5,-0.5 221.5,-30.5 403.5,-30.5 403.5,-0.5 221.5,-0.5"/>
<text text-anchor="start" x="229.5" y="-18.5" font-family="Helvetica,sans-Serif" font-size="10.00">TimeTrackerBackEnd.TimeTracker.set</text>
<text text-anchor="middle" x="312.5" y="-7.5" font-family="Helvetica,sans-Serif" font-size="10.00">Settings</text>
</a>
</g>
</g>
<!-- Node1&#45;&gt;Node7 -->
<g id="edge6" class="edge">
<title>Node1&#45;&gt;Node7</title>
<path fill="none" stroke="midnightblue" d="M106.15,-122.35C128.36,-101 171.9,-62.24 216,-40.5 220.85,-38.11 225.96,-35.93 231.18,-33.94"/>
<polygon fill="midnightblue" stroke="midnightblue" points="232.43,-37.21 240.69,-30.57 230.09,-30.61 232.43,-37.21"/>
</g>
<!-- Node8 -->
<g id="node8" class="node">
<title>Node8</title>
<g id="a_node8"><a xlink:href="classTimeTrackerBackEnd_1_1TimeTracker.html#ab3b7a89f7ba9afdb4f46325604decd61" target="_top" xlink:title=" ">
<polygon fill="white" stroke="black" points="445,-6 445,-25 642,-25 642,-6 445,-6"/>
<text text-anchor="middle" x="543.5" y="-13" font-family="Helvetica,sans-Serif" font-size="10.00">TimeTrackerBackEnd.TimeTracker.toJson</text>
</a>
</g>
</g>
<!-- Node7&#45;&gt;Node8 -->
<g id="edge7" class="edge">
<title>Node7&#45;&gt;Node8</title>
<path fill="none" stroke="midnightblue" d="M403.68,-15.5C413.82,-15.5 424.22,-15.5 434.55,-15.5"/>
<polygon fill="midnightblue" stroke="midnightblue" points="434.85,-19 444.85,-15.5 434.85,-12 434.85,-19"/>
</g>
</g>
</svg>
