<?xml version="1.0" encoding="UTF-8" standalone="no"?>
<!DOCTYPE svg PUBLIC "-//W3C//DTD SVG 1.1//EN"
 "http://www.w3.org/Graphics/SVG/1.1/DTD/svg11.dtd">
<!-- Generated by graphviz version 2.47.1 (20210417.1919)
 -->
<!-- Title: TimeTrackerBackEnd.TimeTracker.getTcpClient Pages: 1 -->
<svg width="813pt" height="100pt"
 viewBox="0.00 0.00 813.00 99.50" xmlns="http://www.w3.org/2000/svg" xmlns:xlink="http://www.w3.org/1999/xlink">
<g id="graph0" class="graph" transform="scale(1 1) rotate(0) translate(4 95.5)">
<title>TimeTrackerBackEnd.TimeTracker.getTcpClient</title>
<polygon fill="white" stroke="transparent" points="-4,4 -4,-95.5 809,-95.5 809,4 -4,4"/>
<!-- Node1 -->
<g id="node1" class="node">
<title>Node1</title>
<g id="a_node1"><a xlink:title=" ">
<polygon fill="#bfbfbf" stroke="black" points="623,-17 623,-47 805,-47 805,-17 623,-17"/>
<text text-anchor="start" x="631" y="-35" font-family="Helvetica,sans-Serif" font-size="10.00">TimeTrackerBackEnd.TimeTracker.get</text>
<text text-anchor="middle" x="714" y="-24" font-family="Helvetica,sans-Serif" font-size="10.00">TcpClient</text>
</a>
</g>
</g>
<!-- Node2 -->
<g id="node2" class="node">
<title>Node2</title>
<g id="a_node2"><a xlink:href="classTimeTrackerGui_1_1SettingsPopup.html#a55e829717dc5a087b61ab4c748abf781" target="_top" xlink:title=" ">
<polygon fill="white" stroke="black" points="407,-39 407,-69 587,-69 587,-39 407,-39"/>
<text text-anchor="start" x="415" y="-57" font-family="Helvetica,sans-Serif" font-size="10.00">TimeTrackerGui.SettingsPopup.config</text>
<text text-anchor="middle" x="497" y="-46" font-family="Helvetica,sans-Serif" font-size="10.00">InputPopup</text>
</a>
</g>
</g>
<!-- Node1&#45;&gt;Node2 -->
<g id="edge1" class="edge">
<title>Node1&#45;&gt;Node2</title>
<path fill="none" stroke="midnightblue" d="M612.53,-42.28C604.12,-43.14 595.65,-44.01 587.32,-44.86"/>
<polygon fill="midnightblue" stroke="midnightblue" points="613.16,-45.73 622.76,-41.23 612.45,-38.77 613.16,-45.73"/>
</g>
<!-- Node5 -->
<g id="node5" class="node">
<title>Node5</title>
<g id="a_node5"><a xlink:href="classTimeTrackerGui_1_1MenuBar.html#a5aa6cb7f00a93d55415b4298f317f7a5" target="_top" xlink:title=" ">
<polygon fill="white" stroke="black" points="412.5,-0.5 412.5,-19.5 581.5,-19.5 581.5,-0.5 412.5,-0.5"/>
<text text-anchor="middle" x="497" y="-7.5" font-family="Helvetica,sans-Serif" font-size="10.00">TimeTrackerGui.MenuBar.MenuBar</text>
</a>
</g>
</g>
<!-- Node1&#45;&gt;Node5 -->
<g id="edge5" class="edge">
<title>Node1&#45;&gt;Node5</title>
<path fill="none" stroke="midnightblue" d="M612.53,-21.72C602.26,-20.67 591.9,-19.61 581.84,-18.58"/>
<polygon fill="midnightblue" stroke="midnightblue" points="612.45,-25.23 622.76,-22.77 613.16,-18.27 612.45,-25.23"/>
</g>
<!-- Node3 -->
<g id="node3" class="node">
<title>Node3</title>
<g id="a_node3"><a xlink:href="classTimeTrackerGui_1_1SettingsPopup.html#adce617d687893d5e79bd54a87c431c56" target="_top" xlink:title=" ">
<polygon fill="white" stroke="black" points="191,-61 191,-91 371,-91 371,-61 191,-61"/>
<text text-anchor="start" x="199" y="-79" font-family="Helvetica,sans-Serif" font-size="10.00">TimeTrackerGui.SettingsPopup.config</text>
<text text-anchor="middle" x="281" y="-68" font-family="Helvetica,sans-Serif" font-size="10.00">ChoicePopup</text>
</a>
</g>
</g>
<!-- Node2&#45;&gt;Node3 -->
<g id="edge2" class="edge">
<title>Node2&#45;&gt;Node3</title>
<path fill="none" stroke="midnightblue" d="M396.77,-64.2C388.19,-65.08 379.55,-65.97 371.06,-66.84"/>
<polygon fill="midnightblue" stroke="midnightblue" points="397.2,-67.68 406.79,-63.17 396.49,-60.71 397.2,-67.68"/>
</g>
<!-- Node4 -->
<g id="node4" class="node">
<title>Node4</title>
<g id="a_node4"><a xlink:href="classTimeTrackerGui_1_1SettingsPopup.html#a47424f3b2f65269a1e2e1213b80b1cb0" target="_top" xlink:title=" ">
<polygon fill="white" stroke="black" points="0,-39 0,-69 155,-69 155,-39 0,-39"/>
<text text-anchor="start" x="8" y="-57" font-family="Helvetica,sans-Serif" font-size="10.00">TimeTrackerGui.SettingsPopup.</text>
<text text-anchor="middle" x="77.5" y="-46" font-family="Helvetica,sans-Serif" font-size="10.00">SettingsPopup</text>
</a>
</g>
</g>
<!-- Node2&#45;&gt;Node4 -->
<g id="edge4" class="edge">
<title>Node2&#45;&gt;Node4</title>
<path fill="none" stroke="midnightblue" d="M396.7,-51.4C388.01,-51.24 379.35,-51.1 371,-51 291.01,-50.04 270.99,-49.93 191,-51 179.38,-51.15 167.08,-51.4 155.05,-51.68"/>
<polygon fill="midnightblue" stroke="midnightblue" points="396.83,-54.9 406.89,-51.6 396.97,-47.9 396.83,-54.9"/>
</g>
<!-- Node3&#45;&gt;Node4 -->
<g id="edge3" class="edge">
<title>Node3&#45;&gt;Node4</title>
<path fill="none" stroke="midnightblue" d="M180.67,-65.15C172.07,-64.22 163.45,-63.28 155.08,-62.36"/>
<polygon fill="midnightblue" stroke="midnightblue" points="180.42,-68.65 190.74,-66.25 181.18,-61.69 180.42,-68.65"/>
</g>
</g>
</svg>
