<?xml version="1.0" encoding="UTF-8" standalone="no"?>
<!DOCTYPE svg PUBLIC "-//W3C//DTD SVG 1.1//EN"
 "http://www.w3.org/Graphics/SVG/1.1/DTD/svg11.dtd">
<!-- Generated by graphviz version 2.47.1 (20210417.1919)
 -->
<!-- Title: TimeTrackerGui.MenuBar Pages: 1 -->
<svg width="138pt" height="182pt"
 viewBox="0.00 0.00 138.00 182.00" xmlns="http://www.w3.org/2000/svg" xmlns:xlink="http://www.w3.org/1999/xlink">
<g id="graph0" class="graph" transform="scale(1 1) rotate(0) translate(4 178)">
<title>TimeTrackerGui.MenuBar</title>
<polygon fill="white" stroke="transparent" points="-4,4 -4,-178 134,-178 134,4 -4,4"/>
<!-- Node1 -->
<g id="node1" class="node">
<title>Node1</title>
<g id="a_node1"><a xlink:title="Classe permettant la création d&#39;une barre d&#39;options dans l&#39;IHM de la pointeuse.">
<polygon fill="#bfbfbf" stroke="black" points="0,-0.5 0,-79.5 130,-79.5 130,-0.5 0,-0.5"/>
<text text-anchor="middle" x="65" y="-67.5" font-family="Helvetica,sans-Serif" font-size="10.00">TimeTrackerGui.MenuBar</text>
<polyline fill="none" stroke="black" points="0,-60.5 130,-60.5 "/>
<text text-anchor="start" x="8" y="-48.5" font-family="Helvetica,sans-Serif" font-size="10.00">~ connectedStatusImg</text>
<text text-anchor="start" x="8" y="-37.5" font-family="Helvetica,sans-Serif" font-size="10.00">~ notConnectedStatusImg</text>
<polyline fill="none" stroke="black" points="0,-30.5 130,-30.5 "/>
<text text-anchor="start" x="8" y="-18.5" font-family="Helvetica,sans-Serif" font-size="10.00">+ MenuBar()</text>
<text text-anchor="start" x="8" y="-7.5" font-family="Helvetica,sans-Serif" font-size="10.00">+ setConnectionStatus()</text>
</a>
</g>
</g>
<!-- Node2 -->
<g id="node2" class="node">
<title>Node2</title>
<g id="a_node2"><a xlink:title=" ">
<polygon fill="white" stroke="#bfbfbf" points="35,-116.5 35,-173.5 95,-173.5 95,-116.5 35,-116.5"/>
<text text-anchor="middle" x="65" y="-161.5" font-family="Helvetica,sans-Serif" font-size="10.00">JMenuBar</text>
<polyline fill="none" stroke="#bfbfbf" points="35,-154.5 95,-154.5 "/>
<text text-anchor="middle" x="65" y="-142.5" font-family="Helvetica,sans-Serif" font-size="10.00"> </text>
<polyline fill="none" stroke="#bfbfbf" points="35,-135.5 95,-135.5 "/>
<text text-anchor="middle" x="65" y="-123.5" font-family="Helvetica,sans-Serif" font-size="10.00"> </text>
</a>
</g>
</g>
<!-- Node2&#45;&gt;Node1 -->
<g id="edge1" class="edge">
<title>Node2&#45;&gt;Node1</title>
<path fill="none" stroke="midnightblue" d="M65,-106.16C65,-97.47 65,-88.23 65,-79.52"/>
<polygon fill="none" stroke="midnightblue" points="61.5,-106.4 65,-116.4 68.5,-106.4 61.5,-106.4"/>
</g>
</g>
</svg>
