<?xml version="1.0" encoding="UTF-8" standalone="no"?>
<!DOCTYPE svg PUBLIC "-//W3C//DTD SVG 1.1//EN"
 "http://www.w3.org/Graphics/SVG/1.1/DTD/svg11.dtd">
<!-- Generated by graphviz version 2.47.1 (20210417.1919)
 -->
<!-- Title: TimeTrackerGui.SettingsPopup.configChoicePopup Pages: 1 -->
<svg width="876pt" height="263pt"
 viewBox="0.00 0.00 876.00 262.50" xmlns="http://www.w3.org/2000/svg" xmlns:xlink="http://www.w3.org/1999/xlink">
<g id="graph0" class="graph" transform="scale(1 1) rotate(0) translate(4 258.5)">
<title>TimeTrackerGui.SettingsPopup.configChoicePopup</title>
<polygon fill="white" stroke="transparent" points="-4,4 -4,-258.5 872,-258.5 872,4 -4,4"/>
<!-- Node1 -->
<g id="node1" class="node">
<title>Node1</title>
<g id="a_node1"><a xlink:title=" ">
<polygon fill="#bfbfbf" stroke="black" points="0,-98.5 0,-128.5 180,-128.5 180,-98.5 0,-98.5"/>
<text text-anchor="start" x="8" y="-116.5" font-family="Helvetica,sans-Serif" font-size="10.00">TimeTrackerGui.SettingsPopup.config</text>
<text text-anchor="middle" x="90" y="-105.5" font-family="Helvetica,sans-Serif" font-size="10.00">ChoicePopup</text>
</a>
</g>
</g>
<!-- Node2 -->
<g id="node2" class="node">
<title>Node2</title>
<g id="a_node2"><a xlink:href="classTimeTrackerGui_1_1SettingsPopup.html#a55e829717dc5a087b61ab4c748abf781" target="_top" xlink:title=" ">
<polygon fill="white" stroke="black" points="221,-120.5 221,-150.5 401,-150.5 401,-120.5 221,-120.5"/>
<text text-anchor="start" x="229" y="-138.5" font-family="Helvetica,sans-Serif" font-size="10.00">TimeTrackerGui.SettingsPopup.config</text>
<text text-anchor="middle" x="311" y="-127.5" font-family="Helvetica,sans-Serif" font-size="10.00">InputPopup</text>
</a>
</g>
</g>
<!-- Node1&#45;&gt;Node2 -->
<g id="edge1" class="edge">
<title>Node1&#45;&gt;Node2</title>
<path fill="none" stroke="midnightblue" d="M180.08,-122.45C190.11,-123.46 200.39,-124.49 210.54,-125.51"/>
<polygon fill="midnightblue" stroke="midnightblue" points="210.35,-129.01 220.65,-126.52 211.05,-122.04 210.35,-129.01"/>
</g>
<!-- Node7 -->
<g id="node7" class="node">
<title>Node7</title>
<g id="a_node7"><a xlink:href="classTimeTrackerBackEnd_1_1TimeTracker.html#a3a808f9b1a05a44eb8ca1cd500703118" target="_top" xlink:title=" ">
<polygon fill="white" stroke="black" points="447.5,-0.5 447.5,-30.5 629.5,-30.5 629.5,-0.5 447.5,-0.5"/>
<text text-anchor="start" x="455.5" y="-18.5" font-family="Helvetica,sans-Serif" font-size="10.00">TimeTrackerBackEnd.TimeTracker.set</text>
<text text-anchor="middle" x="538.5" y="-7.5" font-family="Helvetica,sans-Serif" font-size="10.00">DefaultConf</text>
</a>
</g>
</g>
<!-- Node1&#45;&gt;Node7 -->
<g id="edge13" class="edge">
<title>Node1&#45;&gt;Node7</title>
<path fill="none" stroke="midnightblue" d="M180.11,-107.76C258.8,-101.64 366.93,-90.33 406,-72.5 425.48,-63.61 423.13,-50.6 442,-40.5 446.31,-38.2 450.84,-36.09 455.49,-34.18"/>
<polygon fill="midnightblue" stroke="midnightblue" points="457.07,-37.32 465.18,-30.51 454.59,-30.78 457.07,-37.32"/>
</g>
<!-- Node10 -->
<g id="node10" class="node">
<title>Node10</title>
<g id="a_node10"><a xlink:href="classTimeTrackerBackEnd_1_1TimeTracker.html#a4e502affb392a5fe943c87569614df56" target="_top" xlink:title=" ">
<polygon fill="white" stroke="black" points="216,-191.5 216,-221.5 406,-221.5 406,-191.5 216,-191.5"/>
<text text-anchor="start" x="224" y="-209.5" font-family="Helvetica,sans-Serif" font-size="10.00">TimeTrackerBackEnd.TimeTracker.copy</text>
<text text-anchor="middle" x="311" y="-198.5" font-family="Helvetica,sans-Serif" font-size="10.00">Settings</text>
</a>
</g>
</g>
<!-- Node1&#45;&gt;Node10 -->
<g id="edge9" class="edge">
<title>Node1&#45;&gt;Node10</title>
<path fill="none" stroke="midnightblue" d="M126.67,-128.65C164.45,-144.69 224.19,-170.06 265.13,-187.45"/>
<polygon fill="midnightblue" stroke="midnightblue" points="263.77,-190.67 274.34,-191.36 266.51,-184.23 263.77,-190.67"/>
</g>
<!-- Node11 -->
<g id="node11" class="node">
<title>Node11</title>
<g id="a_node11"><a xlink:href="classTimeTrackerBackEnd_1_1TimeTracker.html#a856447c5ca53db479a1c94d9cec28f07" target="_top" xlink:title=" ">
<polygon fill="white" stroke="black" points="220,-32.5 220,-62.5 402,-62.5 402,-32.5 220,-32.5"/>
<text text-anchor="start" x="228" y="-50.5" font-family="Helvetica,sans-Serif" font-size="10.00">TimeTrackerBackEnd.TimeTracker.list</text>
<text text-anchor="middle" x="311" y="-39.5" font-family="Helvetica,sans-Serif" font-size="10.00">SettingsFiles</text>
</a>
</g>
</g>
<!-- Node1&#45;&gt;Node11 -->
<g id="edge12" class="edge">
<title>Node1&#45;&gt;Node11</title>
<path fill="none" stroke="midnightblue" d="M140.97,-98.44C173.37,-88.68 215.76,-75.9 249.99,-65.59"/>
<polygon fill="midnightblue" stroke="midnightblue" points="251.3,-68.85 259.87,-62.61 249.28,-62.14 251.3,-68.85"/>
</g>
<!-- Node3 -->
<g id="node3" class="node">
<title>Node3</title>
<g id="a_node3"><a xlink:href="classTimeTrackerBackEnd_1_1TCPClient.html#a47ff4312b6ed832f9effff6c1b2457a8" target="_top" xlink:title=" ">
<polygon fill="white" stroke="black" points="442,-235 442,-254 635,-254 635,-235 442,-235"/>
<text text-anchor="middle" x="538.5" y="-242" font-family="Helvetica,sans-Serif" font-size="10.00">TimeTrackerBackEnd.TCPClient.getHost</text>
</a>
</g>
</g>
<!-- Node2&#45;&gt;Node3 -->
<g id="edge2" class="edge">
<title>Node2&#45;&gt;Node3</title>
<path fill="none" stroke="midnightblue" d="M350.69,-150.52C368.54,-158.5 389.39,-169.38 406,-182.5 425.56,-197.95 420.56,-212.79 442,-225.5 445.68,-227.68 449.57,-229.62 453.58,-231.34"/>
<polygon fill="midnightblue" stroke="midnightblue" points="452.56,-234.69 463.15,-234.96 455.04,-228.14 452.56,-234.69"/>
</g>
<!-- Node4 -->
<g id="node4" class="node">
<title>Node4</title>
<g id="a_node4"><a xlink:href="classTimeTrackerBackEnd_1_1TCPClient.html#a48df5809c8c92342810bf197ab4a3256" target="_top" xlink:title=" ">
<polygon fill="white" stroke="black" points="443,-197 443,-216 634,-216 634,-197 443,-197"/>
<text text-anchor="middle" x="538.5" y="-204" font-family="Helvetica,sans-Serif" font-size="10.00">TimeTrackerBackEnd.TCPClient.getPort</text>
</a>
</g>
</g>
<!-- Node2&#45;&gt;Node4 -->
<g id="edge3" class="edge">
<title>Node2&#45;&gt;Node4</title>
<path fill="none" stroke="midnightblue" d="M344.8,-150.58C370.73,-162.02 408.09,-177.44 442,-187.5 451.14,-190.21 460.89,-192.65 470.54,-194.81"/>
<polygon fill="midnightblue" stroke="midnightblue" points="470.01,-198.27 480.52,-196.95 471.48,-191.43 470.01,-198.27"/>
</g>
<!-- Node5 -->
<g id="node5" class="node">
<title>Node5</title>
<g id="a_node5"><a xlink:href="classTimeTrackerBackEnd_1_1TimeTracker.html#a3bd1626f952ab1b1dec1018aa34ec486" target="_top" xlink:title=" ">
<polygon fill="white" stroke="black" points="447.5,-147.5 447.5,-177.5 629.5,-177.5 629.5,-147.5 447.5,-147.5"/>
<text text-anchor="start" x="455.5" y="-165.5" font-family="Helvetica,sans-Serif" font-size="10.00">TimeTrackerBackEnd.TimeTracker.get</text>
<text text-anchor="middle" x="538.5" y="-154.5" font-family="Helvetica,sans-Serif" font-size="10.00">TcpClient</text>
</a>
</g>
</g>
<!-- Node2&#45;&gt;Node5 -->
<g id="edge4" class="edge">
<title>Node2&#45;&gt;Node5</title>
<path fill="none" stroke="midnightblue" d="M401.12,-146.17C412.95,-147.59 425.15,-149.05 437.15,-150.48"/>
<polygon fill="midnightblue" stroke="midnightblue" points="436.83,-153.97 447.18,-151.69 437.66,-147.02 436.83,-153.97"/>
</g>
<!-- Node6 -->
<g id="node6" class="node">
<title>Node6</title>
<g id="a_node6"><a xlink:href="classTimeTrackerBackEnd_1_1TimeTracker.html#a38490707a0983f3f6a99f1a61de36b0e" target="_top" xlink:title=" ">
<polygon fill="white" stroke="black" points="447.5,-98.5 447.5,-128.5 629.5,-128.5 629.5,-98.5 447.5,-98.5"/>
<text text-anchor="start" x="455.5" y="-116.5" font-family="Helvetica,sans-Serif" font-size="10.00">TimeTrackerBackEnd.TimeTracker.get</text>
<text text-anchor="middle" x="538.5" y="-105.5" font-family="Helvetica,sans-Serif" font-size="10.00">TimeTrackerName</text>
</a>
</g>
</g>
<!-- Node2&#45;&gt;Node6 -->
<g id="edge5" class="edge">
<title>Node2&#45;&gt;Node6</title>
<path fill="none" stroke="midnightblue" d="M401.12,-126.81C412.95,-125.65 425.15,-124.46 437.15,-123.29"/>
<polygon fill="midnightblue" stroke="midnightblue" points="437.56,-126.77 447.18,-122.31 436.88,-119.8 437.56,-126.77"/>
</g>
<!-- Node2&#45;&gt;Node7 -->
<g id="edge6" class="edge">
<title>Node2&#45;&gt;Node7</title>
<path fill="none" stroke="midnightblue" d="M380.89,-120.32C389.91,-116.44 398.58,-111.58 406,-105.5 431.53,-84.56 415.92,-60.76 442,-40.5 444.35,-38.68 446.81,-36.98 449.38,-35.42"/>
<polygon fill="midnightblue" stroke="midnightblue" points="451.27,-38.37 458.4,-30.54 447.94,-32.21 451.27,-38.37"/>
</g>
<!-- Node8 -->
<g id="node8" class="node">
<title>Node8</title>
<g id="a_node8"><a xlink:href="classTimeTrackerBackEnd_1_1TimeTracker.html#a37c8378a6047e1aecde582d212d31da4" target="_top" xlink:title=" ">
<polygon fill="white" stroke="black" points="447.5,-49.5 447.5,-79.5 629.5,-79.5 629.5,-49.5 447.5,-49.5"/>
<text text-anchor="start" x="455.5" y="-67.5" font-family="Helvetica,sans-Serif" font-size="10.00">TimeTrackerBackEnd.TimeTracker.set</text>
<text text-anchor="middle" x="538.5" y="-56.5" font-family="Helvetica,sans-Serif" font-size="10.00">Settings</text>
</a>
</g>
</g>
<!-- Node2&#45;&gt;Node8 -->
<g id="edge7" class="edge">
<title>Node2&#45;&gt;Node8</title>
<path fill="none" stroke="midnightblue" d="M362.6,-120.47C376.75,-115.96 392.07,-110.8 406,-105.5 422.36,-99.27 425.48,-95.29 442,-89.5 449.22,-86.97 456.83,-84.56 464.47,-82.31"/>
<polygon fill="midnightblue" stroke="midnightblue" points="465.48,-85.66 474.13,-79.54 463.56,-78.93 465.48,-85.66"/>
</g>
<!-- Node9 -->
<g id="node9" class="node">
<title>Node9</title>
<g id="a_node9"><a xlink:href="classTimeTrackerBackEnd_1_1TimeTracker.html#ab3b7a89f7ba9afdb4f46325604decd61" target="_top" xlink:title=" ">
<polygon fill="white" stroke="black" points="671,-55 671,-74 868,-74 868,-55 671,-55"/>
<text text-anchor="middle" x="769.5" y="-62" font-family="Helvetica,sans-Serif" font-size="10.00">TimeTrackerBackEnd.TimeTracker.toJson</text>
</a>
</g>
</g>
<!-- Node8&#45;&gt;Node9 -->
<g id="edge8" class="edge">
<title>Node8&#45;&gt;Node9</title>
<path fill="none" stroke="midnightblue" d="M629.68,-64.5C639.82,-64.5 650.22,-64.5 660.55,-64.5"/>
<polygon fill="midnightblue" stroke="midnightblue" points="660.85,-68 670.85,-64.5 660.85,-61 660.85,-68"/>
</g>
<!-- Node10&#45;&gt;Node3 -->
<g id="edge10" class="edge">
<title>Node10&#45;&gt;Node3</title>
<path fill="none" stroke="midnightblue" d="M401.12,-221.52C424.5,-225.46 449.3,-229.64 471.25,-233.34"/>
<polygon fill="midnightblue" stroke="midnightblue" points="470.68,-236.79 481.12,-235 471.84,-229.89 470.68,-236.79"/>
</g>
<!-- Node10&#45;&gt;Node4 -->
<g id="edge11" class="edge">
<title>Node10&#45;&gt;Node4</title>
<path fill="none" stroke="midnightblue" d="M406.33,-206.5C415,-206.5 423.82,-206.5 432.59,-206.5"/>
<polygon fill="midnightblue" stroke="midnightblue" points="432.83,-210 442.83,-206.5 432.83,-203 432.83,-210"/>
</g>
</g>
</svg>
