<?xml version="1.0" encoding="UTF-8" standalone="no"?>
<!DOCTYPE svg PUBLIC "-//W3C//DTD SVG 1.1//EN"
 "http://www.w3.org/Graphics/SVG/1.1/DTD/svg11.dtd">
<!-- Generated by graphviz version 2.47.1 (20210417.1919)
 -->
<!-- Title: TimeTrackerGui.MenuBar.MenuBar Pages: 1 -->
<svg width="395pt" height="88pt"
 viewBox="0.00 0.00 395.00 88.00" xmlns="http://www.w3.org/2000/svg" xmlns:xlink="http://www.w3.org/1999/xlink">
<g id="graph0" class="graph" transform="scale(1 1) rotate(0) translate(4 84)">
<title>TimeTrackerGui.MenuBar.MenuBar</title>
<polygon fill="white" stroke="transparent" points="-4,4 -4,-84 391,-84 391,4 -4,4"/>
<!-- Node1 -->
<g id="node1" class="node">
<title>Node1</title>
<g id="a_node1"><a xlink:title=" ">
<polygon fill="#bfbfbf" stroke="black" points="0,-30 0,-49 169,-49 169,-30 0,-30"/>
<text text-anchor="middle" x="84.5" y="-37" font-family="Helvetica,sans-Serif" font-size="10.00">TimeTrackerGui.MenuBar.MenuBar</text>
</a>
</g>
</g>
<!-- Node2 -->
<g id="node2" class="node">
<title>Node2</title>
<g id="a_node2"><a xlink:href="classTimeTrackerBackEnd_1_1TCPClient.html#a6e936bda156c6c49627c423eedceba8f" target="_top" xlink:title=" ">
<polygon fill="white" stroke="black" points="209.5,-49.5 209.5,-79.5 382.5,-79.5 382.5,-49.5 209.5,-49.5"/>
<text text-anchor="start" x="217.5" y="-67.5" font-family="Helvetica,sans-Serif" font-size="10.00">TimeTrackerBackEnd.TCPClient.get</text>
<text text-anchor="middle" x="296" y="-56.5" font-family="Helvetica,sans-Serif" font-size="10.00">ConnexionStatus</text>
</a>
</g>
</g>
<!-- Node1&#45;&gt;Node2 -->
<g id="edge1" class="edge">
<title>Node1&#45;&gt;Node2</title>
<path fill="none" stroke="midnightblue" d="M165.3,-49.02C176.48,-50.36 188.06,-51.74 199.5,-53.1"/>
<polygon fill="midnightblue" stroke="midnightblue" points="199.15,-56.59 209.49,-54.3 199.98,-49.64 199.15,-56.59"/>
</g>
<!-- Node3 -->
<g id="node3" class="node">
<title>Node3</title>
<g id="a_node3"><a xlink:href="classTimeTrackerBackEnd_1_1TimeTracker.html#a3bd1626f952ab1b1dec1018aa34ec486" target="_top" xlink:title=" ">
<polygon fill="white" stroke="black" points="205,-0.5 205,-30.5 387,-30.5 387,-0.5 205,-0.5"/>
<text text-anchor="start" x="213" y="-18.5" font-family="Helvetica,sans-Serif" font-size="10.00">TimeTrackerBackEnd.TimeTracker.get</text>
<text text-anchor="middle" x="296" y="-7.5" font-family="Helvetica,sans-Serif" font-size="10.00">TcpClient</text>
</a>
</g>
</g>
<!-- Node1&#45;&gt;Node3 -->
<g id="edge2" class="edge">
<title>Node1&#45;&gt;Node3</title>
<path fill="none" stroke="midnightblue" d="M168.6,-29.98C177.14,-29 185.88,-28 194.58,-27"/>
<polygon fill="midnightblue" stroke="midnightblue" points="195.22,-30.45 204.76,-25.84 194.43,-23.5 195.22,-30.45"/>
</g>
</g>
</svg>
