<?xml version="1.0" encoding="UTF-8" standalone="no"?>
<!DOCTYPE svg PUBLIC "-//W3C//DTD SVG 1.1//EN"
 "http://www.w3.org/Graphics/SVG/1.1/DTD/svg11.dtd">
<!-- Generated by graphviz version 2.47.1 (20210417.1919)
 -->
<!-- Title: TimeTrackerBackEnd.TCPClient.getHost Pages: 1 -->
<!--zoomable 137 -->
<svg id="main" version="1.1" xmlns="http://www.w3.org/2000/svg" xmlns:xlink="http://www.w3.org/1999/xlink" xml:space="preserve" onload="init(evt)">
<style type="text/css"><![CDATA[
.edge:hover path { stroke: red; }
.edge:hover polygon { stroke: red; fill: red; }
]]></style>
<script type="text/javascript"><![CDATA[
var edges = document.getElementsByTagName('g');
if (edges && edges.length) {
  for (var i=0;i<edges.length;i++) {
    if (edges[i].id.substr(0,4)=='edge') {
      edges[i].setAttribute('class','edge');
    }
  }
}
]]></script>
        <defs>
                <circle id="rim" cx="0" cy="0" r="7"/>
                <circle id="rim2" cx="0" cy="0" r="3.5"/>
                <g id="zoomPlus">
                        <use xlink:href="#rim" fill="#404040">
                                <set attributeName="fill" to="#808080" begin="zoomplus.mouseover" end="zoomplus.mouseout"/>
                        </use>
                        <path d="M-4,0h8M0,-4v8" fill="none" stroke="white" stroke-width="1.5" pointer-events="none"/>
                </g>
                <g id="zoomMin">
                        <use xlink:href="#rim" fill="#404040">
                                <set attributeName="fill" to="#808080" begin="zoomminus.mouseover" end="zoomminus.mouseout"/>
                        </use>
                        <path d="M-4,0h8" fill="none" stroke="white" stroke-width="1.5" pointer-events="none"/>
                </g>
                <g id="dirArrow">
                        <path fill="none" stroke="white" stroke-width="1.5" d="M0,-3.0v7 M-2.5,-0.5L0,-3.0L2.5,-0.5"/>
                </g>
               <g id="resetDef">
                       <use xlink:href="#rim2" fill="#404040">
                               <set attributeName="fill" to="#808080" begin="reset.mouseover" end="reset.mouseout"/>
                       </use>
               </g>
        </defs>

<script type="text/javascript">
var viewWidth = 834;
var viewHeight = 137;
var sectionId = 'dynsection-3';
</script>
<script xlink:href="svgpan.js"/>
<svg id="graph" class="graph">
<g id="viewport">
<title>TimeTrackerBackEnd.TCPClient.getHost</title>
<polygon fill="white" stroke="transparent" points="-4,4 -4,-133 830,-133 830,4 -4,4"/>
<!-- Node1 -->
<g id="node1" class="node">
<title>Node1</title>
<g id="a_node1"><a xlink:title=" ">
<polygon fill="#bfbfbf" stroke="black" points="633,-55 633,-74 826,-74 826,-55 633,-55"/>
<text text-anchor="middle" x="729.5" y="-62" font-family="Helvetica,sans-Serif" font-size="10.00">TimeTrackerBackEnd.TCPClient.getHost</text>
</a>
</g>
</g>
<!-- Node2 -->
<g id="node2" class="node">
<title>Node2</title>
<g id="a_node2"><a xlink:href="classTimeTrackerGui_1_1SettingsPopup.html#a55e829717dc5a087b61ab4c748abf781" target="_top" xlink:title=" ">
<polygon fill="white" stroke="black" points="412,-49.5 412,-79.5 592,-79.5 592,-49.5 412,-49.5"/>
<text text-anchor="start" x="420" y="-67.5" font-family="Helvetica,sans-Serif" font-size="10.00">TimeTrackerGui.SettingsPopup.config</text>
<text text-anchor="middle" x="502" y="-56.5" font-family="Helvetica,sans-Serif" font-size="10.00">InputPopup</text>
</a>
</g>
</g>
<!-- Node1&#45;&gt;Node2 -->
<g id="edge1" class="edge">
<title>Node1&#45;&gt;Node2</title>
<path fill="none" stroke="midnightblue" d="M622.73,-64.5C612.56,-64.5 602.32,-64.5 592.33,-64.5"/>
<polygon fill="midnightblue" stroke="midnightblue" points="622.87,-68 632.87,-64.5 622.87,-61 622.87,-68"/>
</g>
<!-- Node5 -->
<g id="node5" class="node">
<title>Node5</title>
<g id="a_node5"><a xlink:href="classTimeTrackerBackEnd_1_1TimeTracker.html#a4e502affb392a5fe943c87569614df56" target="_top" xlink:title=" ">
<polygon fill="white" stroke="black" points="407,-98.5 407,-128.5 597,-128.5 597,-98.5 407,-98.5"/>
<text text-anchor="start" x="415" y="-116.5" font-family="Helvetica,sans-Serif" font-size="10.00">TimeTrackerBackEnd.TimeTracker.copy</text>
<text text-anchor="middle" x="502" y="-105.5" font-family="Helvetica,sans-Serif" font-size="10.00">Settings</text>
</a>
</g>
</g>
<!-- Node1&#45;&gt;Node5 -->
<g id="edge5" class="edge">
<title>Node1&#45;&gt;Node5</title>
<path fill="none" stroke="midnightblue" d="M674.69,-76.19C644.03,-82.86 605.28,-91.27 572.36,-98.43"/>
<polygon fill="midnightblue" stroke="midnightblue" points="675.73,-79.55 684.75,-74.01 674.24,-72.71 675.73,-79.55"/>
</g>
<!-- Node6 -->
<g id="node6" class="node">
<title>Node6</title>
<g id="a_node6"><a xlink:href="classTimeTrackerBackEnd_1_1TimeTracker.html#aa2d4524bf56d588f82693e336ec8f011" target="_top" xlink:title=" ">
<polygon fill="white" stroke="black" points="417.5,-0.5 417.5,-30.5 586.5,-30.5 586.5,-0.5 417.5,-0.5"/>
<text text-anchor="start" x="425.5" y="-18.5" font-family="Helvetica,sans-Serif" font-size="10.00">TimeTrackerBackEnd.TimeTracker.</text>
<text text-anchor="middle" x="502" y="-7.5" font-family="Helvetica,sans-Serif" font-size="10.00">TimeTracker</text>
</a>
</g>
</g>
<!-- Node1&#45;&gt;Node6 -->
<g id="edge7" class="edge">
<title>Node1&#45;&gt;Node6</title>
<path fill="none" stroke="midnightblue" d="M674.69,-52.81C644.03,-46.14 605.28,-37.73 572.36,-30.57"/>
<polygon fill="midnightblue" stroke="midnightblue" points="674.24,-56.29 684.75,-54.99 675.73,-49.45 674.24,-56.29"/>
</g>
<!-- Node3 -->
<g id="node3" class="node">
<title>Node3</title>
<g id="a_node3"><a xlink:href="classTimeTrackerGui_1_1SettingsPopup.html#adce617d687893d5e79bd54a87c431c56" target="_top" xlink:title=" ">
<polygon fill="white" stroke="black" points="191,-93.5 191,-123.5 371,-123.5 371,-93.5 191,-93.5"/>
<text text-anchor="start" x="199" y="-111.5" font-family="Helvetica,sans-Serif" font-size="10.00">TimeTrackerGui.SettingsPopup.config</text>
<text text-anchor="middle" x="281" y="-100.5" font-family="Helvetica,sans-Serif" font-size="10.00">ChoicePopup</text>
</a>
</g>
</g>
<!-- Node2&#45;&gt;Node3 -->
<g id="edge2" class="edge">
<title>Node2&#45;&gt;Node3</title>
<path fill="none" stroke="midnightblue" d="M416.4,-81.5C396.75,-85.44 375.98,-89.62 356.79,-93.47"/>
<polygon fill="midnightblue" stroke="midnightblue" points="417.13,-84.92 426.25,-79.52 415.75,-78.06 417.13,-84.92"/>
</g>
<!-- Node4 -->
<g id="node4" class="node">
<title>Node4</title>
<g id="a_node4"><a xlink:href="classTimeTrackerGui_1_1SettingsPopup.html#a47424f3b2f65269a1e2e1213b80b1cb0" target="_top" xlink:title=" ">
<polygon fill="white" stroke="black" points="0,-71.5 0,-101.5 155,-101.5 155,-71.5 0,-71.5"/>
<text text-anchor="start" x="8" y="-89.5" font-family="Helvetica,sans-Serif" font-size="10.00">TimeTrackerGui.SettingsPopup.</text>
<text text-anchor="middle" x="77.5" y="-78.5" font-family="Helvetica,sans-Serif" font-size="10.00">SettingsPopup</text>
</a>
</g>
</g>
<!-- Node2&#45;&gt;Node4 -->
<g id="edge4" class="edge">
<title>Node2&#45;&gt;Node4</title>
<path fill="none" stroke="midnightblue" d="M401.93,-69.66C326.52,-73.59 224.26,-78.91 155.07,-82.51"/>
<polygon fill="midnightblue" stroke="midnightblue" points="402.11,-73.15 411.91,-69.14 401.75,-66.16 402.11,-73.15"/>
</g>
<!-- Node3&#45;&gt;Node4 -->
<g id="edge3" class="edge">
<title>Node3&#45;&gt;Node4</title>
<path fill="none" stroke="midnightblue" d="M180.67,-97.65C172.07,-96.72 163.45,-95.78 155.08,-94.86"/>
<polygon fill="midnightblue" stroke="midnightblue" points="180.42,-101.15 190.74,-98.75 181.18,-94.19 180.42,-101.15"/>
</g>
<!-- Node5&#45;&gt;Node3 -->
<g id="edge6" class="edge">
<title>Node5&#45;&gt;Node3</title>
<path fill="none" stroke="midnightblue" d="M396.83,-111.12C388.27,-110.93 379.66,-110.73 371.21,-110.54"/>
<polygon fill="midnightblue" stroke="midnightblue" points="396.78,-114.62 406.85,-111.35 396.94,-107.62 396.78,-114.62"/>
</g>
</g>
</svg>
        <g id="navigator" transform="translate(0 0)" fill="#404254">
                <rect fill="#f2f5e9" fill-opacity="0.5" stroke="#606060" stroke-width=".5" x="0" y="0" width="60" height="60"/>
                <use id="zoomplus" xlink:href="#zoomPlus" x="17" y="9" onmousedown="handleZoom(evt,'in')"/>
                <use id="zoomminus" xlink:href="#zoomMin" x="42" y="9" onmousedown="handleZoom(evt,'out')"/>
                <use id="reset" xlink:href="#resetDef" x="30" y="36" onmousedown="handleReset()"/>
                <g id="arrowUp" xlink:href="#dirArrow" transform="translate(30 24)" onmousedown="handlePan(0,-1)">
                  <use xlink:href="#rim" fill="#404040">
                        <set attributeName="fill" to="#808080" begin="arrowUp.mouseover" end="arrowUp.mouseout"/>
                  </use>
                  <path fill="none" stroke="white" stroke-width="1.5" d="M0,-3.0v7 M-2.5,-0.5L0,-3.0L2.5,-0.5"/>
                </g>
                <g id="arrowRight" xlink:href="#dirArrow" transform="rotate(90) translate(36 -43)" onmousedown="handlePan(1,0)">
                  <use xlink:href="#rim" fill="#404040">
                        <set attributeName="fill" to="#808080" begin="arrowRight.mouseover" end="arrowRight.mouseout"/>
                  </use>
                  <path fill="none" stroke="white" stroke-width="1.5" d="M0,-3.0v7 M-2.5,-0.5L0,-3.0L2.5,-0.5"/>
                </g>
                <g id="arrowDown" xlink:href="#dirArrow" transform="rotate(180) translate(-30 -48)" onmousedown="handlePan(0,1)">
                  <use xlink:href="#rim" fill="#404040">
                        <set attributeName="fill" to="#808080" begin="arrowDown.mouseover" end="arrowDown.mouseout"/>
                  </use>
                  <path fill="none" stroke="white" stroke-width="1.5" d="M0,-3.0v7 M-2.5,-0.5L0,-3.0L2.5,-0.5"/>
                </g>
                <g id="arrowLeft" xlink:href="#dirArrow" transform="rotate(270) translate(-36 17)" onmousedown="handlePan(-1,0)">
                  <use xlink:href="#rim" fill="#404040">
                        <set attributeName="fill" to="#808080" begin="arrowLeft.mouseover" end="arrowLeft.mouseout"/>
                  </use>
                  <path fill="none" stroke="white" stroke-width="1.5" d="M0,-3.0v7 M-2.5,-0.5L0,-3.0L2.5,-0.5"/>
                </g>
        </g>
        <svg viewBox="0 0 15 15" width="100%" height="30px" preserveAspectRatio="xMaxYMin meet">
         <g id="arrow_out" transform="scale(0.3 0.3)">
          <a xlink:href="classTimeTrackerBackEnd_1_1TCPClient_a47ff4312b6ed832f9effff6c1b2457a8_icgraph_org.svg" target="_base">
           <rect id="button" ry="5" rx="5" y="6" x="6" height="38" width="38"
                fill="#f2f5e9" fill-opacity="0.5" stroke="#606060" stroke-width="1.0"/>
           <path id="arrow"
             d="M 11.500037,31.436501 C 11.940474,20.09759 22.043105,11.32322 32.158766,21.979434 L 37.068811,17.246167 C 37.068811,17.246167 37.088388,32 37.088388,32 L 22.160133,31.978069 C 22.160133,31.978069 26.997745,27.140456 26.997745,27.140456 C 18.528582,18.264221 13.291696,25.230495 11.500037,31.436501 z"
             style="fill:#404040;"/>
          </a>
         </g>
        </svg>
</svg>
